<svg xmlns="http://www.w3.org/2000/svg" viewBox="0 0 728.62 163.15"><g id="Calque_2" data-name="Calque 2"><g id="sss"><path d="M727.06,9.55v108a8.54,8.54,0,0,1-2.5,6l-36.1,36.1a8.54,8.54,0,0,1-6,2.5H9.55A8.55,8.55,0,0,1,1,153.6V52.73a8.54,8.54,0,0,1,2.5-6L46.69,3.5a8.54,8.54,0,0,1,6-2.5H718.51A8.55,8.55,0,0,1,727.06,9.55Z" fill="none" stroke="#686868" stroke-miterlimit="10" stroke-width="2"/><path d="M727.62,143.24v16.57a2.32,2.32,0,0,1-2.32,2.32H708.73a2.32,2.32,0,0,1-1.64-4l16.56-16.56A2.32,2.32,0,0,1,727.62,143.24Z" fill="none" stroke="#686868" stroke-miterlimit="10" stroke-width="2"/></g></g></svg>