<svg xmlns="http://www.w3.org/2000/svg" xmlns:xlink="http://www.w3.org/1999/xlink" viewBox="0 0 220.31 37.6"><defs><linearGradient id="Dégradé_sans_nom_11" x1="-15.24" y1="-41.47" x2="-15.24" y2="2.2" gradientTransform="translate(7.38 23.59) rotate(90)" gradientUnits="userSpaceOnUse"><stop offset="0.11" stop-color="lime"/><stop offset="1" stop-color="green"/></linearGradient><linearGradient id="Dégradé_sans_nom_11-2" x1="-15.25" y1="-41.47" x2="-15.25" y2="2.2" xlink:href="#Dégradé_sans_nom_11"/><linearGradient id="Dégradé_sans_nom_11-3" x1="5.91" y1="-41.47" x2="5.91" y2="2.2" xlink:href="#Dégradé_sans_nom_11"/><linearGradient id="Dégradé_sans_nom_11-4" x1="5.91" y1="-41.47" x2="5.91" y2="2.2" xlink:href="#Dégradé_sans_nom_11"/></defs><g id="Calque_2" data-name="Calque 2"><g id="sss"><path d="M37.59,16.7l-14.72-2L20.89,0" fill-rule="evenodd" fill="url(#Dégradé_sans_nom_11)"/><polygon points="37.59 16.7 22.82 15.07 22.54 15.04 22.5 14.76 20.89 0 23.24 14.66 22.92 14.34 37.59 16.7 37.59 16.7" fill="green"/><path d="M16.19.06l-2,14.65L0,16.63" fill-rule="evenodd" fill="url(#Dégradé_sans_nom_11-2)"/><polygon points="16.19 0.06 14.58 14.76 14.55 15.04 14.26 15.07 0 16.63 14.16 14.34 13.85 14.66 16.19 0.06 16.19 0.06" fill="green"/><path d="M21,37.6l1.93-14.23,14.66-2" fill-rule="evenodd" fill="url(#Dégradé_sans_nom_11-3)"/><path d="M20.92,37.6l1.59-14.28,0-.29.29,0,14.71-1.61L22.93,23.74l.32-.32c-.06,0-2.17,14.33-2.33,14.18Z" fill="green"/><path d="M.06,21.46l14.15,1.91,1.91,14.17" fill-rule="evenodd" fill="url(#Dégradé_sans_nom_11-4)"/><polygon points="0.06 21.46 14.26 23 14.54 23.04 14.57 23.32 16.12 37.54 13.84 23.42 14.16 23.74 0.06 21.46 0.06 21.46" fill="green"/><rect x="175.07" y="6.43" width="3.9" height="26.31" fill="#323232"/><rect x="175.07" y="29.24" width="18.95" height="3.5" fill="#323232"/><rect x="175.07" y="6.43" width="18.95" height="3.47" fill="#323232"/><polygon points="172.61 21.53 189.08 21.53 189.08 17.63 175.07 17.63 172.61 21.53" fill="#323232"/><path d="M64,19.21A7.34,7.34,0,0,0,59.07,6.43H46.32v11.2H42.84l-2.36,3.9h5.84V32.74H60a7.35,7.35,0,0,0,4-13.53ZM50.22,9.91h8.53a3.87,3.87,0,0,1,.32,7.72H50.22ZM60,29.24H50.22V21.53h9.51A3.86,3.86,0,0,1,60,29.24Z" fill="#323232"/><polygon points="201.84 6.43 199.7 6.43 197.94 6.43 198.39 7.55 216.41 32.74 218.44 32.74 220.31 32.74 218.13 29.2 201.84 6.43" fill="#323232"/><rect x="197.94" y="6.43" width="3.9" height="26.31" fill="#323232"/><rect x="216.41" y="6.43" width="3.9" height="26.31" fill="#323232"/><path d="M90.81,9.43a14.31,14.31,0,0,0-8.94-3A12.7,12.7,0,0,0,73.05,10a12,12,0,0,0-4.12,9.08,13.12,13.12,0,0,0,4.23,10.09,13.43,13.43,0,0,0,9.34,3.53A12.37,12.37,0,0,0,92,28.44a13.14,13.14,0,0,0,3.63-9A11.89,11.89,0,0,0,90.81,9.43ZM75.5,26.31a10.47,10.47,0,0,1-2.7-7.18,8.91,8.91,0,0,1,2.8-6.56,9.61,9.61,0,0,1,13.71.32,9.7,9.7,0,0,1,2.48,6.72A9.08,9.08,0,0,1,88,27.35a9.7,9.7,0,0,1-5.79,2A8.51,8.51,0,0,1,75.5,26.31Z" fill="#323232"/><polygon points="110.61 16.76 118.23 6.43 113.38 6.43 108.17 13.47 110.61 16.76" fill="#323232"/><polygon points="101.54 22.44 93.94 32.74 98.84 32.74 103.98 25.76 101.54 22.44" fill="#323232"/><polygon points="113.32 32.74 118.22 32.74 98.78 6.43 93.93 6.43 113.32 32.74" fill="green"/><polygon points="133 24.75 133.59 18.94 124.35 6.43 119.5 6.43 133 24.75" fill="#323232"/><rect x="129.69" y="18.94" width="3.9" height="13.79" fill="#323232"/><polygon points="164.83 17.68 162.37 21.57 166.35 21.57 168.81 17.68 164.83 17.68" fill="#323232"/><polygon points="162.52 17.68 160.06 21.57 164.04 21.57 166.5 17.68 162.52 17.68" fill="#323232"/><polygon points="160.22 17.68 157.76 21.57 161.74 21.57 164.2 17.68 160.22 17.68" fill="#323232"/><polygon points="158.96 17.68 156.5 21.57 160.48 21.57 162.94 17.68 158.96 17.68" fill="#323232"/><path d="M166,17.68a12,12,0,0,1,.16,1.93,9.09,9.09,0,0,1-3.76,7.74,9.67,9.67,0,0,1-5.78,2,8.48,8.48,0,0,1-6.75-3.09,10.43,10.43,0,0,1-2.71-7.18A8.92,8.92,0,0,1,150,12.57a9.59,9.59,0,0,1,13.7.32,8.23,8.23,0,0,1,.65.81L167,11.07a12.82,12.82,0,0,0-1.79-1.64,14.31,14.31,0,0,0-8.94-3A12.69,12.69,0,0,0,147.45,10a12,12,0,0,0-4.13,9.08,13.12,13.12,0,0,0,4.23,10.09,13.45,13.45,0,0,0,9.34,3.53,12.35,12.35,0,0,0,9.46-4.3,13.15,13.15,0,0,0,3.64-9,14.71,14.71,0,0,0-.11-1.79Z" fill="#323232"/><polygon points="131.64 22.91 143.79 6.43 138.94 6.43 129.69 18.94 131.64 22.91" fill="#323232"/></g></g></svg>