<svg xmlns="http://www.w3.org/2000/svg" xmlns:xlink="http://www.w3.org/1999/xlink" viewBox="0 0 37.59 37.6"><defs><style>.cls-1,.cls-3,.cls-4,.cls-5{fill-rule:evenodd;}.cls-1{fill:url(#Dégradé_sans_nom_11);}.cls-2{fill:green;}.cls-3{fill:url(#Dégradé_sans_nom_11-2);}.cls-4{fill:url(#Dégradé_sans_nom_11-3);}.cls-5{fill:url(#Dégradé_sans_nom_11-4);}</style><linearGradient id="Dégradé_sans_nom_11" x1="-337.36" y1="-198.41" x2="-337.36" y2="-154.74" gradientTransform="matrix(0, 1, -1, 0, -149.56, 345.71)" gradientUnits="userSpaceOnUse"><stop offset="0.11" stop-color="lime"/><stop offset="1" stop-color="green"/></linearGradient><linearGradient id="Dégradé_sans_nom_11-2" x1="-337.36" y1="-198.41" x2="-337.36" y2="-154.74" xlink:href="#Dégradé_sans_nom_11"/><linearGradient id="Dégradé_sans_nom_11-3" x1="-316.21" y1="-198.41" x2="-316.21" y2="-154.74" xlink:href="#Dégradé_sans_nom_11"/><linearGradient id="Dégradé_sans_nom_11-4" x1="-316.21" y1="-198.41" x2="-316.21" y2="-154.74" xlink:href="#Dégradé_sans_nom_11"/></defs><g id="Calque_2" data-name="Calque 2"><g id="sss"><polyline class="cls-1" points="37.59 16.7 22.87 14.71 20.89 0"/><polygon class="cls-2" points="37.59 16.7 22.82 15.07 22.54 15.04 22.5 14.76 20.89 0 23.24 14.66 22.92 14.34 37.59 16.7 37.59 16.7"/><polyline class="cls-3" points="16.19 0.06 14.21 14.71 0 16.63"/><polygon class="cls-2" points="16.19 0.06 14.58 14.76 14.55 15.04 14.26 15.07 0 16.63 14.16 14.34 13.85 14.66 16.19 0.06 16.19 0.06"/><polyline class="cls-4" points="20.95 37.6 22.88 23.37 37.54 21.39"/><path class="cls-2" d="M20.92,37.6l1.59-14.28,0-.29.29,0,14.71-1.61L22.93,23.74l.32-.32c-.06,0-2.17,14.33-2.33,14.18Z"/><polyline class="cls-5" points="0.06 21.46 14.21 23.37 16.12 37.54"/><polygon class="cls-2" points="0.06 21.46 14.26 23 14.54 23.04 14.57 23.32 16.12 37.54 13.84 23.42 14.16 23.74 0.06 21.46 0.06 21.46"/></g></g></svg>