<svg xmlns="http://www.w3.org/2000/svg" viewBox="0 0 181.45 23.81"><defs><style>.cls-1{fill:#323232;}.cls-2{fill:#008300;}</style></defs><g id="Calque_2" data-name="Calque 2"><g id="sss"><rect class="cls-1" x="140.52" y="0.01" width="3.53" height="23.8"/><rect class="cls-1" x="140.52" y="20.64" width="17.15" height="3.16"/><rect class="cls-1" x="140.52" y="0.01" width="17.15" height="3.14"/><polygon class="cls-1" points="138.3 13.67 153.19 13.67 153.19 10.14 140.52 10.14 138.3 13.67"/><path class="cls-1" d="M40,11.57A6.65,6.65,0,0,0,35.57,0H24V10.14H20.89l-2.13,3.53H24V23.81H36.45A6.64,6.64,0,0,0,40,11.57ZM27.57,3.15h7.72a3.5,3.5,0,0,1,.28,7h-8Zm8.88,17.49H27.57v-7h8.6a3.49,3.49,0,0,1,.28,7Z"/><polygon class="cls-1" points="164.74 0 162.8 0 161.21 0 161.62 1.02 177.92 23.8 179.75 23.8 181.45 23.8 179.47 20.6 164.74 0"/><rect class="cls-1" x="161.21" width="3.53" height="23.8"/><rect class="cls-1" x="177.92" y="0.01" width="3.53" height="23.8"/><polygon class="cls-1" points="4.44 23.8 0 23.8 17.59 0 21.98 0 4.44 23.8"/><polygon class="cls-1" points="17.54 23.8 21.98 23.8 4.39 0 0 0 17.54 23.8"/><path class="cls-1" d="M64.29,2.72A13,13,0,0,0,56.2,0a11.51,11.51,0,0,0-8,3.27,10.84,10.84,0,0,0-3.72,8.22,11.86,11.86,0,0,0,3.82,9.12,12.14,12.14,0,0,0,8.45,3.2,11.21,11.21,0,0,0,8.56-3.89,11.89,11.89,0,0,0,3.29-8.12A10.76,10.76,0,0,0,64.29,2.72ZM50.44,18A9.47,9.47,0,0,1,48,11.5a8.08,8.08,0,0,1,2.54-5.94,8.66,8.66,0,0,1,12.4.29,8.78,8.78,0,0,1,2.25,6.08,8.21,8.21,0,0,1-3.4,7,8.76,8.76,0,0,1-5.23,1.86A7.72,7.72,0,0,1,50.44,18Z"/><polygon class="cls-1" points="82.2 9.35 89.09 0 84.71 0 80 6.37 82.2 9.35"/><polygon class="cls-1" points="74 14.49 67.12 23.8 71.55 23.8 76.21 17.49 74 14.49"/><polygon class="cls-2" points="84.66 23.8 89.09 23.8 71.5 0 67.11 0 84.66 23.8"/><polygon class="cls-1" points="102.45 16.57 103 11.32 94.63 0 90.24 0 102.45 16.57"/><rect class="cls-1" x="99.47" y="11.32" width="3.53" height="12.48"/><polygon class="cls-1" points="131.25 10.18 129.03 13.71 132.63 13.71 134.85 10.18 131.25 10.18"/><polygon class="cls-1" points="129.16 10.18 126.94 13.71 130.54 13.71 132.77 10.18 129.16 10.18"/><polygon class="cls-1" points="127.08 10.18 124.86 13.71 128.46 13.71 130.68 10.18 127.08 10.18"/><polygon class="cls-1" points="125.94 10.18 123.72 13.71 127.32 13.71 129.54 10.18 125.94 10.18"/><path class="cls-1" d="M132.34,10.18a11,11,0,0,1,.14,1.75,8.21,8.21,0,0,1-3.4,7,8.73,8.73,0,0,1-5.23,1.86,7.72,7.72,0,0,1-6.11-2.8,9.46,9.46,0,0,1-2.44-6.49,8,8,0,0,1,2.54-5.94,8.66,8.66,0,0,1,12.4.29,8.07,8.07,0,0,1,.58.73L133.2,4.2a11.45,11.45,0,0,0-1.61-1.48A12.93,12.93,0,0,0,123.5,0a11.49,11.49,0,0,0-8,3.27,10.81,10.81,0,0,0-3.73,8.22,11.86,11.86,0,0,0,3.82,9.12,12.16,12.16,0,0,0,8.45,3.2,11.2,11.2,0,0,0,8.56-3.89,11.89,11.89,0,0,0,3.29-8.12,12.15,12.15,0,0,0-.1-1.62Z"/><polygon class="cls-1" points="101.23 14.91 112.22 0 107.84 0 99.47 11.32 101.23 14.91"/></g></g></svg>