<svg xmlns="http://www.w3.org/2000/svg" xmlns:xlink="http://www.w3.org/1999/xlink" viewBox="0 0 151.94 52.34"><defs><linearGradient id="Dégradé_sans_nom_11" x1="-140.56" y1="-63.78" x2="-140.56" y2="-4.95" gradientTransform="translate(93.31 137.83) rotate(45)" gradientUnits="userSpaceOnUse"><stop offset="0.11" stop-color="lime"/><stop offset="1" stop-color="green"/></linearGradient><linearGradient id="Dégradé_sans_nom_11-2" x1="-140.57" y1="-63.78" x2="-140.57" y2="-4.95" xlink:href="#Dégradé_sans_nom_11"/><linearGradient id="Dégradé_sans_nom_11-3" x1="-112.07" y1="-63.78" x2="-112.07" y2="-4.95" xlink:href="#Dégradé_sans_nom_11"/><linearGradient id="Dégradé_sans_nom_11-4" x1="-112.07" y1="-63.78" x2="-112.07" y2="-4.95" xlink:href="#Dégradé_sans_nom_11"/></defs><g id="Calque_2" data-name="Calque 2"><g id="sss"><path d="M36.24,12,20.32,24.15,4.42,12" fill-rule="evenodd" fill="url(#Dégradé_sans_nom_11)"/><polygon points="36.24 12.02 20.62 24.54 20.32 24.79 20.02 24.54 4.42 12.03 20.62 23.75 20.02 23.75 36.24 12.02 36.24 12.02" fill="green"/><path d="M0,16.57,12.07,32.4.36,47.77" fill-rule="evenodd" fill="url(#Dégradé_sans_nom_11-2)"/><polygon points="0 16.57 12.47 32.09 12.71 32.4 12.47 32.7 0.36 47.77 11.67 32.09 11.67 32.7 0 16.57 0 16.57" fill="green"/><path d="M40.3,47.79,28.58,32.4,40.66,16.55" fill-rule="evenodd" fill="url(#Dégradé_sans_nom_11-3)"/><path d="M40.26,47.82,28.18,32.7l-.24-.3.24-.31L40.66,16.55,29,32.7v-.61c-.05.06,11.58,15.72,11.28,15.73Z" fill="green"/><path d="M5,52.32l15.3-11.66L35.64,52.34" fill-rule="evenodd" fill="url(#Dégradé_sans_nom_11-4)"/><polygon points="5.02 52.32 20.02 40.26 20.32 40.02 20.62 40.26 35.64 52.34 20.02 41.05 20.62 41.05 5.02 52.32 5.02 52.32" fill="green"/><circle cx="46.62" cy="3.06" r="2.56" fill="none" stroke="green" stroke-miterlimit="10"/><circle cx="48.67" cy="14.35" r="6.15" fill="none" stroke="green" stroke-miterlimit="10" stroke-width="2"/><rect x="131.58" y="29.94" width="1.75" height="11.84" fill="#323232"/><rect x="131.58" y="40.2" width="8.53" height="1.57" fill="#323232"/><rect x="131.58" y="29.94" width="8.53" height="1.56" fill="#323232"/><polygon points="130.47 36.73 137.88 36.73 137.88 34.98 131.58 34.98 130.47 36.73" fill="#323232"/><path d="M81.6,35.69a3.31,3.31,0,0,0-2.22-5.75H73.64v5H72.08L71,36.73h2.63v5.05h6.18a3.31,3.31,0,0,0,1.78-6.09ZM75.4,31.5h3.84A1.74,1.74,0,0,1,79.38,35h-4Zm4.42,8.7H75.4V36.73h4.28a1.74,1.74,0,0,1,.14,3.47Z" fill="#323232"/><polygon points="143.62 29.94 142.66 29.94 141.87 29.94 142.07 30.44 150.18 41.78 151.09 41.78 151.94 41.78 150.95 40.18 143.62 29.94" fill="#323232"/><rect x="141.87" y="29.94" width="1.75" height="11.84" fill="#323232"/><rect x="150.18" y="29.94" width="1.75" height="11.84" fill="#323232"/><polygon points="63.89 41.78 61.69 41.78 70.44 29.94 72.62 29.94 63.89 41.78" fill="#323232"/><polygon points="70.41 41.78 72.62 41.78 63.87 29.94 61.68 29.94 70.41 41.78" fill="#323232"/><path d="M93.66,31.29a6.41,6.41,0,0,0-4-1.35,5.73,5.73,0,0,0-4,1.62,5.38,5.38,0,0,0-1.85,4.09,5.91,5.91,0,0,0,1.9,4.54,6,6,0,0,0,4.2,1.59,5.58,5.58,0,0,0,4.26-1.94,5.89,5.89,0,0,0,1.63-4A5.34,5.34,0,0,0,93.66,31.29Zm-6.89,7.59a4.7,4.7,0,0,1-1.21-3.23,4,4,0,0,1,1.26-2.95,4.33,4.33,0,0,1,6.17.15,4.38,4.38,0,0,1,1.11,3,4.07,4.07,0,0,1-1.69,3.48,4.34,4.34,0,0,1-2.6.93A3.84,3.84,0,0,1,86.77,38.88Z" fill="#323232"/><polygon points="102.57 34.59 106 29.94 103.82 29.94 101.48 33.1 102.57 34.59" fill="#323232"/><polygon points="98.49 37.15 95.07 41.78 97.27 41.78 99.59 38.63 98.49 37.15" fill="#323232"/><polygon points="103.79 41.78 106 41.78 97.25 29.94 95.07 29.94 103.79 41.78" fill="green"/><polygon points="112.64 38.18 112.91 35.57 108.75 29.94 106.57 29.94 112.64 38.18" fill="#323232"/><rect x="111.16" y="35.57" width="1.75" height="6.21" fill="#323232"/><polygon points="126.97 35 125.86 36.75 127.65 36.75 128.76 35 126.97 35" fill="#323232"/><polygon points="125.93 35 124.82 36.75 126.62 36.75 127.72 35 125.93 35" fill="#323232"/><polygon points="124.89 35 123.79 36.75 125.58 36.75 126.69 35 124.89 35" fill="#323232"/><polygon points="124.33 35 123.22 36.75 125.01 36.75 126.12 35 124.33 35" fill="#323232"/><path d="M127.51,35a4.94,4.94,0,0,1,.07.87,4.07,4.07,0,0,1-1.69,3.48,4.34,4.34,0,0,1-2.6.93,3.84,3.84,0,0,1-3-1.4A4.71,4.71,0,0,1,119,35.65a4,4,0,0,1,1.27-2.95,4.31,4.31,0,0,1,6.16.15,2.6,2.6,0,0,1,.3.36L127.94,32a5.66,5.66,0,0,0-.8-.74,6.46,6.46,0,0,0-4-1.35,5.73,5.73,0,0,0-4,1.62,5.39,5.39,0,0,0-1.86,4.09,6,6,0,0,0,1.9,4.54,6,6,0,0,0,4.21,1.59,5.54,5.54,0,0,0,4.25-1.94,5.85,5.85,0,0,0,1.64-4,7,7,0,0,0,0-.81Z" fill="#323232"/><polygon points="112.04 37.35 117.5 29.94 115.32 29.94 111.16 35.57 112.04 37.35" fill="#323232"/></g></g></svg>