<svg xmlns="http://www.w3.org/2000/svg" xmlns:xlink="http://www.w3.org/1999/xlink" viewBox="0 0 1920 5750"><defs><style>.cls-1,.cls-12{fill:#fcfcfc;}.cls-2{fill:#b2b2b2;}.cls-3{fill:#6d6d6d;}.cls-11,.cls-4{fill:#686868;}.cls-5{fill:#353535;}.cls-6{fill:#a0a0a0;}.cls-7{fill:#323232;}.cls-8{fill:#008300;}.cls-9{fill:#fff;}.cls-10{fill:#3d3d3d;}.cls-11,.cls-12,.cls-21{stroke:#000;}.cls-11,.cls-12,.cls-15,.cls-17,.cls-21,.cls-25,.cls-26{stroke-miterlimit:10;}.cls-13{font-size:48px;}.cls-13,.cls-16{font-family:Impact;}.cls-14{letter-spacing:-0.04em;}.cls-15,.cls-17,.cls-21,.cls-25,.cls-26{fill:none;}.cls-15,.cls-17{stroke:#878787;}.cls-15,.cls-25,.cls-26{stroke-width:6px;}.cls-16{font-size:37.56px;fill:#262626;letter-spacing:0.02em;}.cls-17{stroke-width:3px;}.cls-18{fill:#c6c6c6;}.cls-19{fill:#303030;}.cls-20{fill:#ddd;}.cls-21{stroke-linecap:round;stroke-width:10px;}.cls-22{opacity:0.25;}.cls-23{fill:url(#Dégradé_sans_nom_25);}.cls-24{opacity:0.18;}.cls-25,.cls-26{stroke:#fff;}.cls-26{opacity:0.49;}</style><linearGradient id="Dégradé_sans_nom_25" x1="745" y1="3168" x2="959.32" y2="3168" gradientUnits="userSpaceOnUse"><stop offset="0" stop-color="#39b54a"/><stop offset="0.25" stop-color="#36b149"/><stop offset="0.47" stop-color="#2ea746"/><stop offset="0.68" stop-color="#219542"/><stop offset="0.88" stop-color="#0e7b3c"/><stop offset="1" stop-color="#006837"/></linearGradient></defs><g id="Calque_2" data-name="Calque 2"><g id="sss"><rect class="cls-1" width="1920" height="5732"/><rect class="cls-2" x="119" y="33" width="111.99" height="57"/><rect class="cls-2" x="252.51" y="33" width="111.99" height="57"/><rect class="cls-2" x="386.01" y="33" width="111.99" height="57"/><rect class="cls-2" x="526.74" y="33" width="111.99" height="57"/><rect class="cls-2" x="1701" y="33" width="175" height="57"/><rect class="cls-2" x="1538" y="33" width="78" height="57"/><rect class="cls-3" y="5575" width="1920" height="175"/><polygon class="cls-4" points="1825.5 254.66 1825.5 963.91 145.57 963.91 94.5 912.85 94.5 190.97 1761.82 190.97 1825.5 254.66"/><rect class="cls-5" x="55" y="2273" width="1784" height="629"/><rect class="cls-4" x="88.31" y="2306" width="413.26" height="566" rx="18.27"/><rect class="cls-4" x="525.03" y="2306" width="413.26" height="566" rx="18.27"/><rect class="cls-4" x="961.74" y="2306" width="413.26" height="566" rx="18.27"/><rect class="cls-4" x="1404.1" y="2306" width="413.26" height="566" rx="18.27"/><rect class="cls-4" x="55.59" y="2192" width="432.27" height="81"/><rect class="cls-6" x="1720" y="2515" width="110" height="110" rx="17.14"/><rect class="cls-4" x="57.57" y="2996" width="432.27" height="81"/><rect class="cls-4" y="3749" width="1920" height="632"/><rect class="cls-4" x="90.31" y="1257" width="903.11" height="658"/><rect class="cls-4" x="90.31" y="1135" width="466.69" height="91"/><rect class="cls-4" x="1065.28" y="1257" width="726.06" height="161.15" rx="29"/><rect class="cls-4" x="1428" y="1135" width="363.34" height="92.54" rx="29"/><rect class="cls-4" x="1065.28" y="1452.95" width="726.06" height="161.15" rx="29"/><rect class="cls-4" x="1065.28" y="1648.9" width="726.06" height="161.15" rx="29"/><rect class="cls-4" x="1065.28" y="1844.85" width="726.06" height="161.15" rx="29"/><rect class="cls-7" x="1009.8" y="44.68" width="3.53" height="23.8"/><rect class="cls-7" x="1009.8" y="65.31" width="17.15" height="3.16"/><rect class="cls-7" x="1009.8" y="44.68" width="17.15" height="3.14"/><polygon class="cls-7" points="1007.57 58.34 1022.47 58.34 1022.47 54.81 1009.8 54.81 1007.57 58.34"/><path class="cls-7" d="M909.31,56.24a6.65,6.65,0,0,0-4.46-11.57H893.31V54.81h-3.14L888,58.34h5.28V68.47h12.42a6.64,6.64,0,0,0,3.58-12.23Zm-12.47-8.42h7.72a3.5,3.5,0,0,1,.29,7h-8Zm8.89,17.49h-8.89v-7h8.61a3.49,3.49,0,0,1,.28,7Z"/><polygon class="cls-7" points="1034.01 44.67 1032.08 44.67 1030.48 44.67 1030.89 45.69 1047.2 68.47 1049.03 68.47 1050.72 68.47 1048.75 65.27 1034.01 44.67"/><rect class="cls-7" x="1030.48" y="44.67" width="3.53" height="23.8"/><rect class="cls-7" x="1047.2" y="44.68" width="3.53" height="23.8"/><polygon class="cls-7" points="873.72 68.47 869.28 68.47 886.87 44.67 891.26 44.67 873.72 68.47"/><polygon class="cls-7" points="886.82 68.47 891.25 68.47 873.66 44.67 869.28 44.67 886.82 68.47"/><path class="cls-7" d="M933.57,47.39a13,13,0,0,0-8.09-2.72,11.49,11.49,0,0,0-8,3.27,10.81,10.81,0,0,0-3.73,8.21,11.88,11.88,0,0,0,3.83,9.13A12.11,12.11,0,0,0,926,68.47a11.19,11.19,0,0,0,8.56-3.88,11.86,11.86,0,0,0,3.29-8.12A10.75,10.75,0,0,0,933.57,47.39ZM919.72,62.66a9.48,9.48,0,0,1-2.45-6.5,8.07,8.07,0,0,1,2.54-5.93,8.66,8.66,0,0,1,12.4.29,8.77,8.77,0,0,1,2.25,6.07,8.21,8.21,0,0,1-3.4,7,8.73,8.73,0,0,1-5.24,1.87A7.7,7.7,0,0,1,919.72,62.66Z"/><polygon class="cls-7" points="951.48 54.02 958.37 44.67 953.98 44.67 949.28 51.04 951.48 54.02"/><polygon class="cls-7" points="943.27 59.16 936.39 68.47 940.83 68.47 945.48 62.16 943.27 59.16"/><polygon class="cls-8" points="953.93 68.47 958.37 68.47 940.78 44.67 936.39 44.67 953.93 68.47"/><polygon class="cls-7" points="971.73 61.24 972.27 55.99 963.91 44.67 959.52 44.67 971.73 61.24"/><rect class="cls-7" x="968.74" y="55.99" width="3.53" height="12.48"/><polygon class="cls-7" points="1000.53 54.85 998.3 58.37 1001.9 58.37 1004.13 54.85 1000.53 54.85"/><polygon class="cls-7" points="998.44 54.85 996.22 58.37 999.82 58.37 1002.04 54.85 998.44 54.85"/><polygon class="cls-7" points="996.36 54.85 994.13 58.37 997.73 58.37 999.96 54.85 996.36 54.85"/><polygon class="cls-7" points="995.22 54.85 992.99 58.37 996.6 58.37 998.82 54.85 995.22 54.85"/><path class="cls-7" d="M1001.61,54.85a9.88,9.88,0,0,1,.15,1.74,8.19,8.19,0,0,1-3.4,7,8.71,8.71,0,0,1-5.23,1.87,7.72,7.72,0,0,1-6.11-2.8,9.48,9.48,0,0,1-2.45-6.5,8.07,8.07,0,0,1,2.54-5.93,8.54,8.54,0,0,1,13,1l2.38-2.38a12,12,0,0,0-1.61-1.48,13,13,0,0,0-8.09-2.72,11.49,11.49,0,0,0-8,3.27,10.83,10.83,0,0,0-3.72,8.21,11.87,11.87,0,0,0,3.82,9.13,12.13,12.13,0,0,0,8.45,3.19,11.2,11.2,0,0,0,8.56-3.88,11.91,11.91,0,0,0,3.29-8.12,14.09,14.09,0,0,0-.1-1.62Z"/><polygon class="cls-7" points="970.51 59.58 981.5 44.67 977.11 44.67 968.74 55.99 970.51 59.58"/><line class="cls-4" x1="145" y1="116" x2="1775" y2="116"/><polygon class="cls-9" points="862.33 1043.23 913.34 1124.38 481.91 150.57 431.5 70.41 862.33 1043.23"/><circle class="cls-6" cx="438" cy="2391" r="50"/><circle class="cls-6" cx="867" cy="2391" r="50"/><circle class="cls-6" cx="1296" cy="2391" r="50"/><circle class="cls-6" cx="1725" cy="2391" r="50"/><rect class="cls-6" x="98" y="2720" width="390" height="131"/><rect class="cls-6" x="537" y="2720" width="390" height="131"/><rect class="cls-6" x="976" y="2720" width="390" height="131"/><rect class="cls-6" x="1415" y="2720" width="390" height="131"/><rect class="cls-10" x="116" y="2737" width="350" height="67"/><rect class="cls-10" x="116" y="2817" width="106" height="24"/><rect class="cls-10" x="360" y="2817" width="106" height="24"/><rect class="cls-10" x="557" y="2737" width="350" height="67"/><rect class="cls-10" x="557" y="2817" width="106" height="24"/><rect class="cls-10" x="801" y="2817" width="106" height="24"/><rect class="cls-10" x="998" y="2737" width="350" height="67"/><rect class="cls-10" x="998" y="2817" width="106" height="24"/><rect class="cls-10" x="1242" y="2817" width="106" height="24"/><rect class="cls-10" x="1439" y="2737" width="350" height="67"/><rect class="cls-10" x="1439" y="2817" width="106" height="24"/><rect class="cls-10" x="1683" y="2817" width="106" height="24"/><path class="cls-11" d="M501.57,3248.27v211.46A18.28,18.28,0,0,1,483.29,3478H106.58a18.27,18.27,0,0,1-18.27-18.27V3248.27A18.27,18.27,0,0,1,106.58,3230H483.29A18.28,18.28,0,0,1,501.57,3248.27Z"/><path class="cls-12" d="M501.57,3248.27v211.46A18.28,18.28,0,0,1,483.29,3478H222l82.64-248H483.29A18.28,18.28,0,0,1,501.57,3248.27Z"/><rect class="cls-11" x="525.03" y="3230" width="413.26" height="248" rx="18.27"/><path class="cls-12" d="M939,3248.27v211.46A18.28,18.28,0,0,1,920.72,3478H659.43l82.64-248H920.72A18.28,18.28,0,0,1,939,3248.27Z"/><rect class="cls-11" x="961.74" y="3230" width="413.26" height="248" rx="18.27"/><path class="cls-12" d="M1376.43,3248.27v211.46a18.28,18.28,0,0,1-18.28,18.27H1096.86l82.64-248h178.65A18.28,18.28,0,0,1,1376.43,3248.27Z"/><rect class="cls-11" x="1404.1" y="3230" width="413.26" height="248" rx="18.27"/><path class="cls-12" d="M1817,3248.27v211.46a18.28,18.28,0,0,1-18.28,18.27H1537.43l82.64-248h178.65A18.28,18.28,0,0,1,1817,3248.27Z"/><text class="cls-13" transform="translate(114.73 3053.61)">Jeux </text><text class="cls-13" transform="translate(114.73 2249.61)"><tspan class="cls-14">T</tspan><tspan x="20.11" y="0">est</tspan></text><text class="cls-13" transform="translate(750.75 3147.61)"><tspan xml:space="preserve">Populaires |  A venir</tspan></text><line class="cls-15" x1="889.21" y1="3616.05" x2="871.94" y2="3633.32"/><line class="cls-15" x1="876.84" y1="3635.64" x2="889.21" y2="3649.05"/><line class="cls-15" x1="1030.5" y1="3616.05" x2="1047.77" y2="3633.32"/><line class="cls-15" x1="1042.88" y1="3635.64" x2="1030.5" y2="3649.05"/><text class="cls-16" transform="translate(935.2 3648.63) scale(0.63 1)">1</text><text class="cls-16" transform="translate(964.49 3648.63) scale(0.63 1)">4</text><line class="cls-17" x1="955.5" y1="3611.5" x2="955.5" y2="3656"/><rect class="cls-18" x="106" y="3505" width="378" height="25"/><rect class="cls-18" x="543" y="3505" width="378" height="25"/><rect class="cls-18" x="980" y="3505" width="378" height="25"/><rect class="cls-18" x="1417" y="3505" width="378" height="25"/><path class="cls-19" d="M1871.43,3824.31v480.38a47.31,47.31,0,0,1-47.31,47.31H938.89a47.31,47.31,0,0,1-47.31-47.32l.12-480.38A47.31,47.31,0,0,1,939,3777h885.11A47.31,47.31,0,0,1,1871.43,3824.31Z"/><rect class="cls-19" x="55" y="3806" width="642" height="63"/><rect class="cls-19" x="55" y="3910" width="469.15" height="209"/><polygon class="cls-20" points="1428.36 4054.88 1386.51 4079.05 1344.65 4103.21 1344.65 4054.88 1344.65 4006.56 1386.51 4030.72 1428.36 4054.88"/><rect class="cls-9" x="75" y="470" width="70" height="147"/><rect class="cls-9" x="1791" y="470" width="70" height="147"/><path class="cls-21" d="M103.49,515l-24,24a6.22,6.22,0,0,0,0,8.8"/><line class="cls-21" x1="89" y1="559" x2="102.36" y2="572"/><path class="cls-21" d="M1812.65,515l24,24a6.22,6.22,0,0,1,0,8.8"/><line class="cls-21" x1="1827.14" y1="559" x2="1813.78" y2="572"/><text class="cls-13" transform="translate(219.14 444.11)">titre<tspan x="0" y="57.6">description</tspan></text><rect class="cls-1" x="324" y="715" width="261" height="69"/><rect class="cls-22" x="201" y="398" width="123" height="52"/><rect class="cls-22" x="201" y="463" width="395" height="209"/><text class="cls-13" transform="translate(414.5 765.79)">voir</text><polygon class="cls-23" points="959.32 3163 941.32 3173 745 3173 762.84 3163.09 762.68 3163 959.32 3163"/><rect class="cls-24" x="935" y="880" width="134" height="84" rx="8.93"/><line class="cls-25" x1="1038.04" y1="906.17" x2="1038.04" y2="939.14"/><line class="cls-26" x1="1016.32" y1="922.85" x2="1016.32" y2="939.14"/><line class="cls-26" x1="994.6" y1="922.85" x2="994.6" y2="939.14"/><line class="cls-26" x1="972.88" y1="922.85" x2="972.88" y2="939.14"/></g></g></svg>