<?xml version="1.0" encoding="UTF-8"?>
<svg id="svg31" width="152.51mm" height="104.46mm" viewBox="0 0 432.3 296.1" xmlns="http://www.w3.org/2000/svg">
<title>Starfield logo</title>
<desc>Video game developed by Bethesda Game Studios</desc>
 <defs>
  <style>.cls-1 {
        fill: #fff;
      }
      .cls-2 {
        mask: url(#mask);
      }
      .cls-3 {
        fill: none;
        stroke: #000;
        stroke-width: 7.1px;
      }</style>
  <mask id="mask" x="0" y="0" width="436" height="297" maskUnits="userSpaceOnUse">
   <g id="starfield-arc-mask">
    <rect id="rect2" class="cls-1" width="436" height="297"/>
    <path id="starfield-arc-mask-T" d="M54,125.2H76V131H54Z"/>
    <path id="starfield-arc-mask-L" d="m340 171.1h22v5.8h-22z"/>
   </g>
  </mask>
 </defs>
 <g id="g25">
  <path id="path7" d="m105.6 155.24 6.2-16.3 6.2 16.3 1.1 2.9 4.6 12.1h6.5l-16-40.1h-4.6l-16.4 40.1h6.6l4.6-12.1z"/>
  <path id="path9" d="M236.7,135.64v-5.5H209.6v40.1h5.9v-18.7h19V146h-19v-10.4Z"/>
  <path id="path11" d="m261.1 130.14h6v40.1h-6z"/>
  <path id="path13" d="M323,135.84v-5.7H296v40.1h28.4v-5.7H302v-12h19v-5.7H302v-11Z"/>
  <path id="path19" d="m422.1 131.34c-2.8-1.1-6.2-1.1-10.1-1.2h-11.8v40.2h11c6.3 0 10.1 0 13.9-3 4.6-3.6 7.2-9.8 7.2-17.2 0-9-4-16.4-10.2-18.8zm-2 32.3c-2.2 1-6.2 1-8.6 1h-5.3v-28.8h5.4c4.5 0 6.4 0 8.3 0.8 3.9 1.7 6.4 7.2 6.4 13.6 0 7.3-3.1 12-6.2 13.4z"/>
  <path id="path21" d="M15.9,134.54a8.58,8.58,0,0,1,7.2,3.3,7.81,7.81,0,0,1,1.1,2l.3.8H31l-.4-1.5c-1.3-4.6-5.9-10-14.6-10-6.6,0-13.7,2.9-13.7,11,0,8.4,7.7,10.3,12.3,11.5l.4.1c4.5,1.2,6.5,1.7,8,3a4.94,4.94,0,0,1,1.8,4.1c0,3.1-2.4,6.8-9.3,6.8-1.9,0-6.6-.4-8.5-4.2a7.71,7.71,0,0,1-.7-2.6l.1-1.1H0l.2,1.4a14.49,14.49,0,0,0,5.9,9.6,17.65,17.65,0,0,0,9.5,2.5c10,0,15.3-6.3,15.3-12.5,0-3.7-1.7-8.7-9.5-11.1-.7-.3-2.8-.8-5.4-1.5-1.1-.3-2-.5-2.3-.6-2.9-.9-5.5-2.1-5.5-5.4C8.3,134.74,14.7,134.54,15.9,134.54Z"/>
  <path id="path23" d="m182.7 142.14c0-3.1-0.8-9.2-7.5-11.3-2.5-0.8-7.9-0.6-10.6-0.6h-12.1v40.1h6v-16.8h7.1l11.9 16.7h7.5l-12.4-17a12.4 12.4 0 0 0 7-3.1 11.09 11.09 0 0 0 3.1-8zm-10.4 5.5a31.2 31.2 0 0 1-6.1 0.3h-7.7v-12.3h8a37.3 37.3 0 0 1 5.7 0.2c3.9 0.8 4.5 4.1 4.5 6s-0.5 5-4.4 5.8z"/>
 </g>
 <path id="starfield-top-T" d="M80,130.15v5.5H50.2v-5.5Z"/>
 <path id="starfield-bottom-L" d="M377.7,164.55v5.8H348.1c.2-1.3.5-3.2.8-5.8Z"/>
 <g class="cls-2">
  <path id="starfield-arc-T" class="cls-3" d="m65.6 130.35a147.56 147.56 0 0 0-1.1 17.7 154.32 154.32 0 0 0 1.1 18.1 144.53 144.53 0 0 0 285.7 7.1"/>
  <path id="starfield-arc-L" class="cls-3" d="m351.9 169.85a142.53 142.53 0 0 0 1.6-21.8 144.53 144.53 0 0 0-287.6-20.4"/>
 </g>
</svg>